<?xml  version="1.0" encoding="UTF-8"?>
<!DOCTYPE svg PUBLIC "-//W3C//DTD SVG 1.0//EN" "http://www.w3.org/TR/2001/REC-SVG-20010904/DTD/svg10.dtd" >
<svg xmlns="http://www.w3.org/2000/svg" >
<metadata>
<version>1.0</version>
<id><![CDATA[Proxima N W01 At Smbd]]></id>
<vendor>Monotype Imaging Inc.</vendor>
<credits>
<name>Fonts.com WebFonts</name>
<URL>http://webfonts.fonts.com</URL>
<role>Home of the Web fonts</role>
</credits>
<license>
<URL>http://webfonts.fonts.com/Legal</URL>
</license>
<copyright><![CDATA[Copyright (c) Mark Simonson, 2005. All rights reserved.]]></copyright>
<trademark><![CDATA[Proxima Nova is a trademark of Mark Simonson.]]></trademark>
<licensee>
<name></name>
</licensee>
</metadata>
<defs >
<font horiz-adv-x="524" id="bcade2c9-7691-43e7-9c1b-e6b2ac50ee97">
<font-face font-family="" panose-1="2 0 5 6 3 0 0 2 0 4" ascent="741" descent="-259" units-per-em="1000" alphabetic="0">
</font-face>
<missing-glyph horiz-adv-x="0" />

<glyph unicode="&#xA;" />
<glyph unicode="&#xD;" horiz-adv-x="0" />
<glyph unicode=" " horiz-adv-x="258" />
<glyph unicode="!" horiz-adv-x="244" d="M77 205L58 667H186L168 205H77ZM123 -10Q94 -10 74 10T53 60Q53 88 73 108T123 129Q152 129 172 109T192 60Q192 31 172 11T123 -10Z"  />
<glyph unicode="&quot;" horiz-adv-x="380" d="M83 391Q73 450 65 498Q62 519 59 539T53 575T50 603T48 618Q48 643 65 660T107 677Q132 677 149 660T166 618Q166 615 165 604T161 576T155 539T148 498Q140 450 131 391H83ZM249 391Q239 450 231 498Q228 519 225 539T219 575T216 603T214 618Q214 643 231 660T273 677Q298 677 315 660T332 618Q332 615 331 604T327 576T321 539T314 498Q306 450 297 391H249Z"  />
<glyph unicode="#" horiz-adv-x="607" d="M242 0L301 175H199L141 0H61L120 175H19L41 244H143L203 423H101L122 492H226L284 667H364L306 492H407L465 667H545L486 492H588L568 423H464L403 244H509L487 175H380L322 0H242ZM384 423H283L223 244H323L384 423Z"  />
<glyph unicode="$" horiz-adv-x="605" d="M269 -10Q191 -4 134 24T36 94L102 185Q130 154 172 129T269 95V289Q230 299 193 312T125 346T77 400T58 482Q58 520 73 553T115 613T182 655T269 676V768H349V675Q410 668 460 645T550 584L484 497Q455 526 421 543T349 568V395Q388 385 427 372T496 336T546 279T566 195Q566 157 553 122T514 59T446 13T349 -10V-100H269V-10ZM446 184Q446 218 419 236T349 268V94Q401 102 423 128T446 184ZM178 491Q178 462 203 445T269 416V573Q227 568 203 546T178 491Z"  />
<glyph unicode="%" horiz-adv-x="747" d="M194 346Q157 346 127 358T74 393T40 446T28 511Q28 546 40 576T74 629T126 664T194 677Q231 677 262 665T314 630T348 577T360 511Q360 476 348 446T315 394T262 359T194 346ZM129 0L555 667H623L196 0H129ZM553 -12Q516 -12 486 0T433 35T399 88T387 153Q387 188 399 218T433 271T485 306T553 319Q590 319 620 307T673 272T707 219T719 153Q719 118 707 88T673 36T621 1T553 -12ZM194 413Q233 413 258 440T283 511Q283 556 258 583T194 611Q156 611 131 584T106 511Q106 467 131 440T194 413ZM553 55Q592 55 617 82T642 153Q642 198 617 225T553 253Q514 253 489 226T464 153Q464 109 489 82T553 55Z"  />
<glyph unicode="&amp;" horiz-adv-x="645" d="M490 0Q478 11 463 26T431 58Q393 26 347 7T244 -12Q200 -12 161 0T93 36T47 95T30 178Q30 217 42 246T74 299T120 340T175 373Q154 411 141 448T128 520Q128 553 141 582T179 632T237 665T309 677Q343 677 372 668T424 642T460 599T473 541Q473 503 459 475T421 426T368 388T307 356Q324 332 341 311T373 273Q390 253 406 234T439 196Q463 232 479 269T505 336L590 297Q573 256 550 214T498 131Q528 99 560 67T628 0H490ZM258 72Q290 72 318 85T373 119Q347 146 326 170T291 212Q272 234 253 258T217 307Q184 285 163 257T141 187Q141 160 150 139T176 102T213 80T258 72ZM233 517Q233 494 242 469T266 417Q290 428 310 440T346 466T371 497T380 535Q380 566 361 583T313 600Q280 600 257 577T233 517Z"  />
<glyph unicode="&apos;" horiz-adv-x="214" d="M83 391Q73 450 65 498Q62 519 59 539T53 575T50 603T48 618Q48 643 65 660T107 677Q132 677 149 660T166 618Q166 615 165 604T161 576T155 539T148 498Q140 450 131 391H83Z"  />
<glyph unicode="(" horiz-adv-x="276" d="M194 -199Q158 -156 130 -104T83 5T53 122T42 243Q42 303 52 363T82 481T130 590T194 685L259 636Q234 589 215 544T182 452T163 354T156 243Q156 184 162 133T182 35T214 -58T259 -149L194 -199Z"  />
<glyph unicode=")" horiz-adv-x="277" d="M18 -149Q43 -103 62 -58T94 34T113 133T120 243Q120 302 114 353T94 452T62 544T18 636L83 685Q118 642 146 590T193 481T223 364T234 243Q234 183 224 123T194 5T146 -104T83 -199L18 -149Z"  />
<glyph unicode="*" horiz-adv-x="347" d="M146 376L151 488L57 428L29 476L128 527L29 578L57 626L151 565L146 677H201L196 565L290 626L318 578L218 527L318 476L290 428L196 488L201 376H146Z"  />
<glyph unicode="+" horiz-adv-x="502" d="M288 304V96H214V304H29V371H214V572H288V371H473V304H288Z"  />
<glyph unicode="&#x2c;" horiz-adv-x="245" d="M198 38Q198 -14 173 -59T105 -133L57 -94Q69 -87 81 -76T103 -53T120 -27T129 0Q127 -1 122 -2T112 -3Q87 -3 70 15T53 61Q53 89 72 109T121 129Q152 129 175 106T198 38Z"  />
<glyph unicode="-" horiz-adv-x="300" d="M30 197V287H270V197H30Z"  />
<glyph unicode="." horiz-adv-x="246" d="M123 -11Q94 -11 74 10T53 60Q53 88 73 108T123 129Q152 129 172 109T193 60Q193 31 173 10T123 -11Z"  />
<glyph unicode="/" horiz-adv-x="315" d="M0 -20L237 687H315L78 -20H0Z"  />
<glyph unicode="0" horiz-adv-x="617" d="M309 -12Q238 -12 188 18T105 98T58 208T42 333Q42 396 57 457T105 568T187 647T309 677Q379 677 429 647T512 568T559 458T575 333Q575 270 560 209T512 98T430 19T309 -12ZM309 92Q349 92 377 112T423 165T448 241T456 333Q456 381 449 424T424 501T378 553T309 573Q268 573 240 554T195 501T169 425T161 333Q161 285 169 242T194 165T240 112T309 92Z"  />
<glyph unicode="1" horiz-adv-x="380" d="M192 0V516L83 402L15 473L207 667H309V0H192Z"  />
<glyph unicode="2" horiz-adv-x="595" d="M50 0V93Q147 166 215 221T327 319T391 399T411 472Q411 498 401 517T373 548T334 567T289 573Q230 573 186 552T109 494L41 570Q86 624 151 650T288 677Q336 677 380 664T457 624T509 560T529 472Q529 425 509 381T450 292T359 201T238 103H533V0H50Z"  />
<glyph unicode="3" horiz-adv-x="574" d="M276 -12Q187 -12 123 19T24 96L88 173Q120 135 169 114T272 92Q338 92 374 120T411 194Q411 244 373 266T263 289Q242 289 219 289T187 287V393Q191 393 200 393T219 392T241 392T263 392Q293 392 318 397T361 413T390 440T401 480Q401 503 391 520T362 549T319 567T266 573Q165 573 93 499L33 572Q72 618 132 647T277 677Q331 677 375 665T450 629T499 573T517 498Q517 464 504 438T471 392T424 361T373 345Q397 342 424 331T474 300T513 251T528 183Q528 140 511 105T460 43T381 3T276 -12Z"  />
<glyph unicode="4" horiz-adv-x="580" d="M346 0V151H28V245L302 667H463V254H552V151H463V0H346ZM346 562L143 254H346V562Z"  />
<glyph unicode="5" horiz-adv-x="600" d="M304 -12Q218 -12 158 15T57 91L124 172Q192 92 303 92Q367 92 403 126T440 210Q440 264 404 296T306 328Q264 328 228 315T160 271L77 295V667H514V564H194V372Q219 395 258 412T345 429Q387 429 426 415T494 373T541 305T559 214Q559 162 540 121T488 50T407 4T304 -12Z"  />
<glyph unicode="6" horiz-adv-x="601" d="M317 -12Q243 -12 191 15T106 90T58 200T42 333Q42 405 61 467T117 576T209 650T336 677Q398 677 445 657T527 603L473 515Q447 542 416 557T336 573Q294 573 261 555T206 507T172 437T160 353V334Q172 351 190 367T232 397T282 419T339 428Q384 428 424 414T496 373T545 306T563 212Q563 166 546 125T496 54T419 6T317 -12ZM310 92Q343 92 368 102T410 130T435 167T444 208Q444 239 433 261T403 298T360 320T308 327Q265 327 226 306T162 249Q164 222 173 194T200 144T245 107T310 92Z"  />
<glyph unicode="7" horiz-adv-x="532" d="M121 0L373 564H27V667H508V586L250 0H121Z"  />
<glyph unicode="8" horiz-adv-x="596" d="M298 -12Q247 -12 201 0T119 35T63 92T42 172Q42 203 54 230T86 279T134 317T192 344Q164 353 139 367T94 400T64 445T53 502Q53 548 74 581T131 636T210 667T298 677Q342 677 386 667T465 636T521 582T543 502Q543 470 532 445T502 401T458 367T404 344Q434 334 461 318T509 280T542 231T554 172Q554 127 533 93T477 35T396 0T298 -12ZM298 391Q313 394 335 400T376 417T410 444T424 484Q424 527 388 550T298 573Q244 573 208 550T172 484Q172 461 186 445T220 417T261 400T298 391ZM298 92Q326 92 350 98T394 117T424 147T435 187Q435 213 420 231T382 263T337 283T298 292Q282 290 259 283T214 263T177 232T161 187Q161 165 171 148T201 118T244 99T298 92Z"  />
<glyph unicode="9" horiz-adv-x="601" d="M266 -11Q203 -11 156 9T74 63L129 152Q155 124 186 109T266 93Q311 93 344 112T399 162T431 232T442 313Q442 318 442 322T441 332Q430 315 412 299T370 269T320 247T262 239Q217 239 177 252T106 293T57 360T39 454Q39 500 56 541T106 612T183 660T285 678Q358 678 410 651T496 576T544 466T560 334Q560 262 541 199T485 90T393 16T266 -11ZM294 339Q337 339 375 360T440 418Q437 445 428 472T402 522T357 559T291 574Q258 574 233 564T191 537T166 499T157 458Q157 427 168 405T198 368T242 346T294 339Z"  />
<glyph unicode=":" horiz-adv-x="237" d="M123 351Q94 351 74 371T53 420Q53 449 73 469T123 490Q152 490 172 470T193 420Q193 392 173 372T123 351ZM123 -11Q94 -11 74 10T53 60Q53 88 73 108T123 129Q152 129 172 109T193 60Q193 31 173 10T123 -11Z"  />
<glyph unicode=";" horiz-adv-x="245" d="M123 351Q94 351 74 371T53 421Q53 450 73 470T123 490Q152 490 172 470T193 421Q193 392 173 372T123 351ZM198 41Q198 -11 173 -56T105 -130L57 -91Q69 -84 81 -73T103 -50T120 -24T129 3Q125 1 112 1Q87 1 70 18T53 64Q53 92 72 112T121 132Q152 132 175 109T198 41Z"  />
<glyph unicode="&lt;" horiz-adv-x="502" d="M29 297V373L473 580V500L109 334L473 171V90L29 297Z"  />
<glyph unicode="=" horiz-adv-x="502" d="M29 396V463H473V396H29ZM29 205V273H473V205H29Z"  />
<glyph unicode="&gt;" horiz-adv-x="502" d="M29 90V171L394 334L29 500V580L473 373V297L29 90Z"  />
<glyph unicode="?" horiz-adv-x="459" d="M189 196Q154 230 154 282Q154 312 166 334T196 374T234 405T273 433T303 464T315 501Q315 530 292 551T220 573Q173 573 140 554T81 503L13 578Q51 626 107 651T231 677Q278 677 315 665T379 632T420 583T434 520Q434 483 421 457T388 410T345 374T302 343T269 310T256 271Q256 259 261 247T278 226L189 196ZM225 -11Q196 -11 176 10T155 60Q155 88 175 108T225 129Q254 129 274 109T295 60Q295 31 275 10T225 -11Z"  />
<glyph unicode="@" horiz-adv-x="783" d="M352 -70Q284 -70 226 -46T126 20T59 120T35 244Q35 325 68 396T155 521T282 606T432 638Q504 638 562 614T661 547T724 448T747 327Q747 266 730 221T686 145T626 100T560 85Q516 85 493 108T466 162L465 169Q439 131 399 108T315 85Q279 85 251 97T202 132T171 184T160 251Q160 302 179 347T231 426T304 479T390 499Q438 499 469 478T517 427L528 484H622L568 228Q567 224 567 217T566 206Q566 182 578 170T607 158Q622 158 639 167T672 196T697 248T708 328Q708 388 688 438T632 524T544 581T429 601Q357 601 293 572T179 494T102 381T73 246Q73 187 94 136T153 47T243 -12T357 -34Q409 -34 454 -19T540 22L560 -7Q513 -37 461 -53T352 -70ZM349 161Q393 161 425 185T476 237L502 363Q498 373 491 383T473 403T446 417T412 423Q379 423 351 409T302 372T270 319T258 258Q258 215 282 188T349 161Z"  />
<glyph unicode="A" horiz-adv-x="673" d="M539 0L490 129H184L135 0H2L264 667H410L672 0H539ZM337 550L217 232H457L337 550Z"  />
<glyph unicode="B" horiz-adv-x="649" d="M71 0V667H399Q445 667 480 654T540 617T576 563T589 497Q589 466 580 440T554 395T517 362T473 344Q500 340 523 326T564 289T592 239T602 181Q602 142 590 109T553 52T492 14T408 0H71ZM376 392Q421 392 445 416T469 478Q469 515 445 539T376 564H188V392H376ZM381 103Q429 103 455 127T482 196Q482 234 457 261T381 289H188V103H381Z"  />
<glyph unicode="C" horiz-adv-x="682" d="M392 -12Q318 -12 254 13T143 83T69 192T42 333Q42 410 69 473T143 582T254 653T392 678Q442 678 483 666T557 634T615 586T659 529L560 477Q536 519 491 546T392 574Q342 574 300 556T228 506T180 430T162 333Q162 281 179 237T227 161T300 110T392 92Q446 92 491 119T560 189L660 139Q641 109 616 82T557 34T483 1T392 -12Z"  />
<glyph unicode="D" horiz-adv-x="710" d="M71 0V667H319Q397 667 461 643T572 574T643 468T668 334Q668 260 643 199T572 93T462 25T320 0H71ZM319 103Q373 103 416 121T488 170T532 244T548 334Q548 382 533 424T490 497T418 546T320 564H188V103H319Z"  />
<glyph unicode="E" horiz-adv-x="577" d="M71 0V667H528V564H188V392H521V289H188V103H528V0H71Z"  />
<glyph unicode="F" horiz-adv-x="563" d="M71 0V667H528V564H188V392H521V289H188V0H71Z"  />
<glyph unicode="G" horiz-adv-x="717" d="M382 -13Q313 -13 251 11T143 81T69 191T42 333Q42 412 69 475T144 584T255 653T392 678Q441 678 481 667T555 638T614 594T660 540L565 485Q538 523 493 548T392 574Q342 574 300 556T228 506T180 430T162 333Q162 281 179 237T227 161T300 110T392 92Q434 92 467 105T525 140T564 193T587 256H350V359H714Q714 274 692 206T627 89T523 14T382 -13Z"  />
<glyph unicode="H" horiz-adv-x="723" d="M535 0V292H188V0H71V667H188V395H535V667H652V0H535Z"  />
<glyph unicode="I" horiz-adv-x="259" d="M71 0V667H188V0H71Z"  />
<glyph unicode="J" horiz-adv-x="482" d="M186 -12Q134 -12 89 4T8 59L63 148Q83 125 111 109T177 92Q231 92 262 125T294 213V667H411V212Q411 155 394 113T347 43T276 2T186 -12Z"  />
<glyph unicode="K" horiz-adv-x="621" d="M470 0L247 282L188 213V0H71V667H188V350L449 667H594L323 353L615 0H470Z"  />
<glyph unicode="L" horiz-adv-x="506" d="M63 0V667H180V103H474V0H63Z"  />
<glyph unicode="M" horiz-adv-x="835" d="M647 0V515L443 0H393L188 515V0H71V667H236L418 209L599 667H764V0H647Z"  />
<glyph unicode="N" horiz-adv-x="720" d="M536 0L188 477V0H71V667H191L532 205V667H649V0H536Z"  />
<glyph unicode="O" horiz-adv-x="765" d="M383 -12Q308 -12 246 14T138 86T67 195T42 333Q42 408 67 471T137 580T245 652T383 678Q458 678 520 652T628 580T698 471T724 333Q724 258 699 195T628 86T521 14T383 -12ZM383 92Q433 92 474 110T544 161T588 237T604 333Q604 385 589 429T544 505T474 555T383 574Q332 574 292 556T222 505T178 429T162 333Q162 282 177 238T222 161T291 111T383 92Z"  />
<glyph unicode="P" horiz-adv-x="609" d="M71 0V667H365Q417 667 457 651T526 606T568 539T582 458Q582 416 568 378T526 312T458 267T365 250H188V0H71ZM349 353Q399 353 430 381T462 458Q462 506 431 535T349 564H188V353H349Z"  />
<glyph unicode="Q" horiz-adv-x="765" d="M383 -12Q308 -12 246 14T138 86T67 195T42 333Q42 408 67 471T137 580T245 652T383 678Q458 678 520 652T628 580T698 471T724 333Q724 261 701 200T635 93L690 31L609 -37L551 28Q476 -12 383 -12ZM383 92Q434 92 477 112L394 206L476 274L559 180Q581 211 592 249T604 333Q604 385 589 429T544 505T474 555T383 574Q332 574 292 556T222 505T178 429T162 333Q162 282 177 238T222 161T291 111T383 92Z"  />
<glyph unicode="R" horiz-adv-x="629" d="M452 0L305 249H188V0H71V667H364Q413 667 453 652T523 609T567 543T583 458Q583 414 570 380T534 321T483 282T424 262L588 0H452ZM349 352Q399 352 431 381T463 459Q463 507 431 535T349 564H188V352H349Z"  />
<glyph unicode="S" horiz-adv-x="594" d="M300 -12Q207 -12 140 17T28 94L94 185Q128 148 181 120T305 92Q341 92 366 100T407 121T430 150T438 184Q438 219 410 237T338 269T244 294T151 327T79 384T50 482Q50 524 67 559T116 621T193 663T293 678Q371 678 433 654T542 584L476 497Q436 537 386 555T282 574Q231 574 201 551T170 491Q170 460 198 443T270 414T364 390T457 355T529 295T558 195Q558 153 543 116T497 50T416 5T300 -12Z"  />
<glyph unicode="T" horiz-adv-x="577" d="M230 0V564H28V667H549V564H347V0H230Z"  />
<glyph unicode="U" horiz-adv-x="720" d="M360 -12Q288 -12 234 8T143 64T89 151T71 264V667H190V267Q190 187 233 140T360 92Q444 92 487 139T530 267V667H649V264Q649 202 631 151T577 64T487 8T360 -12Z"  />
<glyph unicode="V" horiz-adv-x="673" d="M264 0L2 667H135L337 128L539 667H672L410 0H264Z"  />
<glyph unicode="W" horiz-adv-x="903" d="M581 0L452 493L322 0H197L7 667H137L267 154L405 667H498L636 154L766 667H897L706 0H581Z"  />
<glyph unicode="X" horiz-adv-x="661" d="M518 0L331 261L144 0H4L253 342L19 667H159L331 423L502 667H643L408 343L658 0H518Z"  />
<glyph unicode="Y" horiz-adv-x="637" d="M261 0V277L2 667H136L319 382L502 667H636L378 277V0H261Z"  />
<glyph unicode="Z" horiz-adv-x="589" d="M45 0V95L385 564H45V667H538V573L196 103H545V0H45Z"  />
<glyph unicode="[" horiz-adv-x="265" d="M44 -190V678H247V606H122V-118H247V-190H44Z"  />
<glyph unicode="\" horiz-adv-x="315" d="M0 687H78L315 -20H237L0 687Z"  />
<glyph unicode="]" horiz-adv-x="265" d="M18 -190V-118H143V606H18V678H221V-190H18Z"  />
<glyph unicode="^" horiz-adv-x="437" d="M338 333L219 594L100 333H19L181 667H258L418 333H338Z"  />
<glyph unicode="_" horiz-adv-x="564" d="M-3 -112V-40H567V-112H-3Z"  />
<glyph unicode="`" horiz-adv-x="240" d="M165 556L0 700H100L240 556H165Z"  />
<glyph unicode="a" horiz-adv-x="581" d="M408 0V66Q380 30 341 9T253 -12Q207 -12 168 5T100 55T55 135T39 242Q39 300 55 347T99 427T167 477T253 495Q299 495 339 475T408 416V483H513V0H408ZM284 81Q302 81 320 86T355 100T385 120T408 146V337Q399 350 386 362T356 383T321 397T284 402Q252 402 227 390T184 357T157 307T147 242Q147 207 156 178T184 127T227 93T284 81Z"  />
<glyph unicode="b" horiz-adv-x="581" d="M173 145Q191 118 225 100T298 81Q361 81 397 126T434 242Q434 277 425 306T397 357T354 390T298 402Q260 402 226 383T173 337V145ZM68 0V667H173V416Q202 455 242 475T328 495Q375 495 414 478T482 427T527 347T543 242Q543 182 527 135T482 55T414 5T328 -12Q281 -12 241 9T173 66V0H68Z"  />
<glyph unicode="c" horiz-adv-x="498" d="M288 -12Q233 -12 188 7T109 60T58 140T39 242Q39 297 57 343T109 423T187 476T288 495Q324 495 352 488T403 469T443 442T473 409L404 346Q364 402 293 402Q227 402 187 358T147 242Q147 207 157 178T187 127T233 93T293 81Q363 81 404 139L473 74Q447 40 403 14T288 -12Z"  />
<glyph unicode="d" horiz-adv-x="581" d="M408 0V66Q380 30 341 9T253 -12Q207 -12 168 5T100 55T55 135T39 242Q39 300 55 347T99 427T167 477T253 495Q299 495 339 475T408 416V667H513V0H408ZM284 81Q302 81 320 86T355 100T385 120T408 146V337Q399 350 386 362T356 383T321 397T284 402Q252 402 227 390T184 357T157 307T147 242Q147 207 156 178T184 127T227 93T284 81Z"  />
<glyph unicode="e" horiz-adv-x="557" d="M292 -12Q237 -12 191 6T111 57T58 138T39 242Q39 294 57 340T107 421T185 475T284 495Q338 495 382 476T457 421T504 338T521 233V207H149Q152 180 163 156T194 114T241 85T302 74Q338 74 376 88T440 128L488 59Q451 24 400 6T292 -12ZM420 282Q419 303 411 325T386 366T344 397T283 409Q250 409 225 398T184 368T158 327T148 282H420Z"  />
<glyph unicode="f" horiz-adv-x="309" d="M94 0V392H14V483H94V510Q94 591 137 634T246 677Q298 677 331 659L308 580Q291 591 266 591Q234 591 217 571T199 510V483H297V392H199V0H94Z"  />
<glyph unicode="g" horiz-adv-x="581" d="M265 -196Q203 -196 155 -181T62 -124L111 -48Q141 -82 179 -96T265 -110Q291 -110 316 -104T362 -81T395 -40T408 25V80Q380 43 341 21T253 -1Q207 -1 168 15T100 63T55 141T39 247Q39 306 55 352T99 430T167 478T253 495Q299 495 339 475T408 416V483H513V25Q513 -40 491 -83T434 -151T354 -186T265 -196ZM284 93Q321 93 355 112T408 157V338Q390 364 356 383T284 402Q221 402 184 360T147 247Q147 177 184 135T284 93Z"  />
<glyph unicode="h" horiz-adv-x="568" d="M395 0V304Q395 361 369 381T298 402Q257 402 225 382T174 338V0H69V667H174V418Q186 432 203 446T242 471T289 488T344 495Q422 495 461 456T500 342V0H395Z"  />
<glyph unicode="i" horiz-adv-x="241" d="M121 542Q94 542 75 561T56 607Q56 634 75 653T121 672Q148 672 167 653T186 607Q186 580 167 561T121 542ZM68 0V483H173V0H68Z"  />
<glyph unicode="j" horiz-adv-x="241" d="M121 542Q94 542 75 561T56 607Q56 634 75 653T121 672Q148 672 167 653T186 607Q186 580 167 561T121 542ZM13 -196Q-29 -196 -52 -188T-101 -161L-70 -83Q-56 -95 -41 -102T-3 -110Q29 -110 48 -91T68 -28V483H173V-28Q173 -106 134 -151T13 -196Z"  />
<glyph unicode="k" horiz-adv-x="527" d="M388 0L241 200L173 130V0H68V667H173V250L386 483H516L316 264L520 0H388Z"  />
<glyph unicode="l" horiz-adv-x="286" d="M192 -12Q131 -12 100 20T68 113V667H173V139Q173 114 184 98T219 81Q234 81 247 86T266 99L291 19Q277 6 253 -3T192 -12Z"  />
<glyph unicode="m" horiz-adv-x="834" d="M661 0V315Q661 354 643 378T581 402Q546 402 516 382T469 338V0H364V315Q364 354 346 378T285 402Q250 402 220 382T173 338V0H68V483H173V418Q181 429 196 442T232 467T278 487T331 495Q385 495 418 471T463 407Q473 423 489 439T527 467T574 487T627 495Q693 495 729 459T766 349V0H661Z"  />
<glyph unicode="n" horiz-adv-x="568" d="M395 0V302Q395 359 369 380T297 402Q257 402 225 382T173 338V0H68V483H173V418Q185 432 202 446T242 471T289 488T344 495Q422 495 461 455T500 340V0H395Z"  />
<glyph unicode="o" horiz-adv-x="574" d="M287 -12Q229 -12 183 8T105 63T56 144T39 242Q39 294 56 340T105 420T183 475T287 495Q345 495 391 475T469 421T518 340T535 242Q535 190 518 144T469 64T391 9T287 -12ZM287 81Q321 81 347 94T390 129T417 180T426 242Q426 274 417 303T391 354T347 389T287 402Q254 402 228 389T184 354T157 303T148 242Q148 210 157 181T184 129T228 94T287 81Z"  />
<glyph unicode="p" horiz-adv-x="579" d="M328 -12Q282 -12 243 8T173 67V-184H68V483H173V417Q200 453 240 474T328 495Q375 495 414 478T481 429T526 349T542 242Q542 182 526 135T482 56T414 6T328 -12ZM297 81Q360 81 397 126T434 242Q434 313 397 357T297 402Q260 402 226 384T173 338V147Q182 133 195 121T225 100T260 86T297 81Z"  />
<glyph unicode="q" horiz-adv-x="579" d="M282 81Q300 81 318 86T353 100T383 121T406 147V338Q388 365 354 383T282 402Q219 402 182 358T145 242Q145 171 182 126T282 81ZM251 -12Q204 -12 165 5T98 55T53 135T37 242Q37 302 53 349T97 428T165 478T251 495Q299 495 339 474T406 417V483H511V-184H406V67Q376 29 337 9T251 -12Z"  />
<glyph unicode="r" horiz-adv-x="347" d="M68 0V483H173V413Q201 448 242 471T330 495V391Q316 394 298 394Q281 394 263 389T227 375T195 354T173 329V0H68Z"  />
<glyph unicode="s" horiz-adv-x="472" d="M234 -12Q171 -12 118 7T27 64L75 139Q88 126 106 114T146 93T191 78T238 72Q286 72 310 89T334 136Q334 160 313 172T259 192T188 208T118 232T64 275T42 349Q42 379 54 405T91 452T150 483T232 495Q294 495 340 476T419 428L375 354Q353 378 316 395T232 412Q190 412 167 395T143 352Q143 331 164 320T218 302T289 286T359 261T413 216T435 139Q435 107 422 79T384 31T321 0T234 -12Z"  />
<glyph unicode="t" horiz-adv-x="319" d="M214 -12Q152 -12 121 20T90 113V392H10V483H90V615H195V483H293V392H195V139Q195 114 206 98T241 81Q256 81 268 86T287 99L312 19Q298 6 274 -3T214 -12Z"  />
<glyph unicode="u" horiz-adv-x="567" d="M394 0V64Q368 35 325 12T224 -12Q146 -12 107 27T68 141V483H173V180Q173 124 199 103T271 81Q311 81 343 100T394 144V483H499V0H394Z"  />
<glyph unicode="v" horiz-adv-x="503" d="M195 0L-2 483H111L252 121L393 483H505L308 0H195Z"  />
<glyph unicode="w" horiz-adv-x="755" d="M490 0L377 354L265 0H155L5 483H114L216 132L331 483H424L538 132L640 483H750L600 0H490Z"  />
<glyph unicode="x" horiz-adv-x="497" d="M374 0L249 178L123 0H5L183 248L16 483H134L248 320L363 483H481L314 248L492 0H374Z"  />
<glyph unicode="y" horiz-adv-x="567" d="M258 -196Q197 -196 150 -179T63 -124L112 -48Q138 -81 177 -95T258 -110Q322 -110 358 -76T394 24V80Q368 51 325 28T224 4Q146 4 107 43T68 157V483H173V196Q173 140 199 119T271 97Q311 97 343 116T394 160V483H499V24Q499 -30 481 -71T431 -140T354 -182T258 -196Z"  />
<glyph unicode="z" horiz-adv-x="476" d="M47 0V80L285 392H47V483H426V407L184 92H430V0H47Z"  />
<glyph unicode="{" horiz-adv-x="277" d="M199 -190Q172 -190 146 -180T101 -151T69 -104T57 -42V145Q57 173 44 193T5 213V275Q31 275 44 295T57 343V529Q57 563 69 591T100 638T146 667T199 678H260V606H199Q173 606 154 586T134 530V333Q134 301 124 278T89 244Q114 233 124 210T134 155V-41Q134 -75 153 -96T199 -118H260V-190H199Z"  />
<glyph unicode="|" horiz-adv-x="214" d="M71 -20V687H143V-20H71Z"  />
<glyph unicode="}" horiz-adv-x="277" d="M17 -118H78Q104 -118 123 -97T143 -41V155Q143 187 153 210T188 244Q163 255 153 278T143 333V530Q143 565 124 585T78 606H17V678H78Q105 678 131 668T176 638T208 591T220 529V343Q220 315 233 295T272 275V213Q246 213 233 193T220 145V-42Q220 -77 208 -104T177 -150T131 -180T78 -190H17V-118Z"  />
<glyph unicode="~" horiz-adv-x="507" d="M481 659Q477 614 469 571T445 493T403 438T337 417Q305 417 285 430T252 464T232 508T216 552T198 585T171 599Q154 599 143 584T123 544T109 486T101 416L27 425Q31 470 39 513T63 590T106 645T171 666Q203 666 223 653T256 619T276 575T292 531T310 497T337 483Q353 483 365 498T385 538T399 596T408 667L481 659Z"  />
<glyph unicode="&#xA0;" horiz-adv-x="258" />
<glyph unicode="&#xA1;" horiz-adv-x="244" d="M76 279H167L186 -184H58L76 279ZM52 424Q52 453 72 473T122 494Q151 494 171 474T191 424Q191 396 171 376T122 355Q93 355 73 375T52 424Z"  />
<glyph unicode="&#xA2;" horiz-adv-x="498" d="M246 -9Q199 -2 161 19T96 74T54 149T39 242Q39 291 54 333T96 409T161 463T246 492V565H324V493Q379 486 414 463T473 409L404 346Q373 388 324 399V84Q373 95 404 139L473 74Q450 45 415 21T324 -10V-100H246V-9ZM147 242Q147 185 173 144T246 88V395Q200 380 174 340T147 242Z"  />
<glyph unicode="&#xA3;" horiz-adv-x="536" d="M22 338H105Q83 367 65 398T47 475Q47 520 67 557T119 621T194 662T281 677Q359 677 415 648T500 560L407 505Q395 537 365 559T294 581Q269 581 248 574T210 552T184 518T174 473Q174 450 180 432T195 398T215 368T236 338H383V269H267Q270 254 270 239Q270 199 250 169T200 119Q211 124 224 126T250 128Q273 128 290 122T322 110T353 97T388 91Q420 91 444 103T478 129L526 36Q505 15 470 1T384 -13Q351 -13 328 -6T286 9T247 25T203 32Q177 32 147 21T87 -7L47 76Q101 101 133 135T165 212Q165 228 162 241T152 269H22V338Z"  />
<glyph unicode="&#xA4;" horiz-adv-x="506" d="M253 222Q310 222 341 262T372 365Q372 395 364 421T341 467T304 498T253 509Q224 509 202 498T165 468T141 422T133 365Q133 334 141 308T164 263T202 233T253 222ZM19 168L88 239Q50 294 50 365Q50 436 88 489L19 560L64 603L131 534Q155 552 185 563T253 574Q289 574 320 563T375 534L442 603L487 560L418 489Q455 435 455 365Q455 330 445 298T417 240L487 168L442 125L374 194Q325 157 253 157Q181 157 132 194L64 125L19 168Z"  />
<glyph unicode="&#xA5;" horiz-adv-x="637" d="M261 0V118H23V186H261V277H23V345H216L2 667H136L319 382L502 667H636L423 345H615V277H378V186H615V118H378V0H261Z"  />
<glyph unicode="&#xA6;" horiz-adv-x="214" d="M71 -20V296H143V-20H71ZM71 371V687H143V371H71Z"  />
<glyph unicode="&#xA7;" horiz-adv-x="477" d="M435 321Q435 280 413 247T347 194Q386 177 410 149T435 72Q435 36 420 8T378 -40T314 -70T234 -81Q159 -81 110 -58T28 -3L75 65Q87 52 103 39T140 16T184 0T234 -7Q279 -7 306 11T334 63Q334 90 313 104T259 128T188 146T118 171T64 213T42 286Q42 311 51 332T75 368T108 394T147 411Q97 429 70 459T42 537Q42 566 55 591T93 636T153 666T231 677Q303 677 348 656T419 608L375 546Q349 574 312 588T236 603Q194 603 169 586T143 538Q143 514 164 502T218 481T289 464T359 440T413 396T435 321ZM331 304Q331 322 323 335T302 358T271 373T235 384Q181 371 162 350T143 300Q143 280 153 267T180 245T218 230T262 219Q296 234 313 254T331 304Z"  />
<glyph unicode="&#xA8;" horiz-adv-x="285" d="M306 608Q306 584 289 567T247 550Q223 550 206 567T189 608Q189 633 206 650T247 667Q272 667 289 650T306 608ZM97 608Q97 584 80 567T38 550Q14 550 -3 567T-21 608Q-21 633 -4 650T38 667Q63 667 80 650T97 608Z"  />
<glyph unicode="&#xA9;" horiz-adv-x="778" d="M734 334Q734 263 707 200T633 90T524 16T389 -11Q318 -11 255 16T145 90T71 200T44 334Q44 406 71 468T145 578T255 652T389 679Q461 679 523 652T633 578T707 469T734 334ZM700 334Q700 398 676 455T609 554T510 620T389 645Q325 645 269 621T170 554T103 455T78 334Q78 270 102 214T169 115T268 48T389 23Q453 23 510 47T609 114T675 213T700 334ZM541 190Q514 158 477 140T393 122Q350 122 312 138T246 183T202 251T185 336Q185 382 201 420T246 487T312 531T393 547Q440 547 477 530T540 481L512 452Q492 478 460 494T393 510Q360 510 330 498T277 462T241 406T227 335Q227 297 240 265T276 210T329 173T393 159Q429 159 460 175T512 218L541 190Z"  />
<glyph unicode="&#xAA;" horiz-adv-x="382" d="M251 326V360Q235 343 210 331T146 318Q126 318 106 324T71 344T45 377T35 422Q35 448 45 467T70 499T106 518T146 524Q184 524 209 513T251 485V531Q251 558 230 573T177 589Q152 589 128 579T83 546L52 597Q81 623 116 635T189 648Q216 648 241 642T286 622T316 586T328 529V326H251ZM178 368Q199 368 219 376T251 400V444Q239 460 219 468T178 476Q150 476 131 462T112 422Q112 396 131 382T178 368Z"  />
<glyph unicode="&#xAB;" horiz-adv-x="490" d="M360 63L200 243L360 420H460L300 243L460 63H360ZM190 63L30 243L190 420H290L130 243L290 63H190Z"  />
<glyph unicode="&#xAC;" horiz-adv-x="511" d="M473 205H403V396H29V463H473V205Z"  />
<glyph unicode="&#xAD;" horiz-adv-x="300" d="M30 197V287H270V197H30Z"  />
<glyph unicode="&#xAE;" horiz-adv-x="494" d="M459 465Q459 421 443 383T398 315T330 270T247 253Q203 253 165 269T97 315T52 382T35 465Q35 509 51 548T97 615T164 660T247 677Q291 677 330 661T397 616T442 548T459 465ZM429 465Q429 503 415 536T376 594T318 633T247 647Q209 647 177 633T119 595T80 537T66 465Q66 428 80 395T119 338T176 299T247 284Q285 284 318 298T376 337T415 395T429 465ZM305 343L242 439H199V343H166V586H265Q296 586 319 566T343 512Q343 492 336 478T318 456T297 444T281 440L346 343H305ZM309 512Q309 532 295 544T265 557H199V469H265Q281 469 295 481T309 512Z"  />
<glyph unicode="&#xAF;" horiz-adv-x="363" d="M0 591V653H363V591H0Z"  />
<glyph unicode="&#xB0;" horiz-adv-x="302" d="M281 547Q281 520 271 497T243 456T202 428T151 418Q124 418 101 428T60 455T32 496T22 547Q22 574 32 597T59 639T100 667T151 677Q178 677 201 667T242 639T270 598T281 547ZM221 547Q221 576 201 596T151 617Q122 617 102 597T82 547Q82 518 102 499T151 479Q180 479 200 498T221 547Z"  />
<glyph unicode="&#xB1;" horiz-adv-x="502" d="M288 325V118H214V325H29V393H214V593H288V393H473V325H288ZM29 0V68H473V0H29Z"  />
<glyph unicode="&#xB2;" horiz-adv-x="394" d="M48 421V481Q109 524 151 556T220 614T257 659T269 700Q269 732 247 747T194 762Q159 762 129 747T84 712L41 763Q70 796 112 811T196 827Q227 827 255 820T304 797T337 759T350 706Q350 652 302 601T165 486H353V421H48Z"  />
<glyph unicode="&#xB3;" horiz-adv-x="394" d="M355 531Q355 480 312 447T195 414Q139 414 99 432T37 478L78 530Q99 505 130 492T193 479Q232 479 253 494T274 536Q274 569 247 581T179 594Q166 594 154 594T137 593V657Q142 656 154 656T179 656Q220 656 244 668T268 710Q268 736 245 749T188 762Q124 762 80 717L42 764Q66 791 104 809T196 827Q267 827 307 798T348 719Q348 699 340 684T320 657T291 638T259 628Q274 626 291 620T322 601T345 572T355 531Z"  />
<glyph unicode="&#xB4;" horiz-adv-x="240" d="M75 556H0L140 700H240L75 556Z"  />
<glyph unicode="&#xB5;" horiz-adv-x="567" d="M68 -184V483H173V180Q173 124 199 102T271 80Q311 80 343 100T394 144V483H499V0H394V64Q368 35 325 12T224 -12Q198 -12 173 -7V-184H68Z"  />
<glyph unicode="&#xB6;" horiz-adv-x="449" d="M337 -100V612H254V-100H199V323Q163 323 132 336T78 373T41 428T27 495Q27 531 40 562T77 616T132 653T199 667H392V-100H337Z"  />
<glyph unicode="&#xB7;" horiz-adv-x="246" d="M192 245Q192 216 172 196T123 175Q94 175 74 195T53 245Q53 273 73 293T123 314Q152 314 172 294T192 245Z"  />
<glyph unicode="&#xB8;" horiz-adv-x="214" d="M106 -194Q72 -194 44 -185T0 -163L23 -117Q42 -132 62 -139T104 -146Q126 -146 142 -137T159 -110Q159 -80 127 -80Q105 -80 92 -95L52 -72L82 11H137L112 -53Q128 -42 148 -42Q176 -42 195 -61T214 -111Q214 -149 183 -171T106 -194Z"  />
<glyph unicode="&#xB9;" horiz-adv-x="264" d="M123 421V718L57 649L10 698L134 821H204V421H123Z"  />
<glyph unicode="&#xBA;" horiz-adv-x="405" d="M202 318Q163 318 132 331T80 367T46 420T34 483Q34 517 46 547T79 599T132 635T202 648Q241 648 272 635T326 600T359 547T371 483Q371 450 360 420T326 368T273 332T202 318ZM202 381Q245 381 268 409T292 483Q292 528 269 556T202 584Q160 584 138 556T115 483Q115 438 137 410T202 381Z"  />
<glyph unicode="&#xBB;" horiz-adv-x="490" d="M130 63H30L190 243L30 420H130L290 243L130 63ZM300 63H200L360 243L200 420H300L460 243L300 63Z"  />
<glyph unicode="&#xBC;" horiz-adv-x="806" d="M192 0H125L552 667H619L192 0ZM723 92V0H643V92H446V149L611 400H723V156H777V92H723ZM643 331L526 156H643V331ZM123 267V564L57 495L10 544L134 667H204V267H123Z"  />
<glyph unicode="&#xBD;" horiz-adv-x="841" d="M192 0H125L552 667H619L192 0ZM496 0V60Q557 103 599 135T668 193T705 238T717 279Q717 311 695 326T642 341Q607 341 577 326T532 291L489 342Q518 375 560 390T644 406Q675 406 703 399T752 376T785 338T798 285Q798 231 750 180T613 65H801V0H496ZM123 267V564L57 495L10 544L134 667H204V267H123Z"  />
<glyph unicode="&#xBE;" horiz-adv-x="903" d="M289 0H222L649 667H716L289 0ZM819 92V0H739V92H542V149L707 400H819V156H873V92H819ZM739 331L622 156H739V331ZM355 377Q355 326 312 293T195 260Q139 260 99 278T37 324L78 376Q99 351 130 338T193 325Q232 325 253 340T274 382Q274 415 247 427T179 440Q166 440 154 440T137 439V503Q142 502 154 502T179 502Q220 502 244 514T268 556Q268 582 245 595T188 608Q124 608 80 563L42 610Q66 637 104 655T196 673Q267 673 307 644T348 565Q348 545 340 530T320 503T291 484T259 474Q274 472 291 466T322 447T345 418T355 377Z"  />
<glyph unicode="&#xBF;" horiz-adv-x="396" d="M270 286Q305 252 305 200Q305 170 293 148T263 108T225 77T186 48T156 18T144 -20Q144 -49 167 -70T239 -92Q286 -92 319 -73T378 -22L446 -97Q408 -144 352 -170T228 -196Q181 -196 143 -184T79 -151T39 -102T25 -39Q25 -2 38 25T71 72T114 108T157 139T190 172T203 211Q203 223 198 235T181 256L270 286ZM234 494Q263 494 283 474T304 424Q304 395 284 375T234 354Q205 354 185 374T164 424Q164 453 184 473T234 494Z"  />
<glyph unicode="&#xC0;" horiz-adv-x="673" d="M338 728L173 872H273L413 728H338ZM539 0L490 129H184L135 0H2L264 667H410L672 0H539ZM337 550L217 232H457L337 550Z"  />
<glyph unicode="&#xC1;" horiz-adv-x="673" d="M338 728H263L403 872H503L338 728ZM539 0L490 129H184L135 0H2L264 667H410L672 0H539ZM337 550L217 232H457L337 550Z"  />
<glyph unicode="&#xC2;" horiz-adv-x="673" d="M415 728L337 825L263 728H196L289 872H385L481 728H415ZM539 0L490 129H184L135 0H2L264 667H410L672 0H539ZM337 550L217 232H457L337 550Z"  />
<glyph unicode="&#xC3;" horiz-adv-x="673" d="M395 726Q369 726 353 738T325 765T303 792T276 804Q259 804 247 787T235 732H177Q177 794 203 830T280 866Q306 866 322 854T350 827T372 800T399 788Q416 788 428 805T441 860H498Q498 798 472 762T395 726ZM539 0L490 129H184L135 0H2L264 667H410L672 0H539ZM337 550L217 232H457L337 550Z"  />
<glyph unicode="&#xC4;" horiz-adv-x="673" d="M501 780Q501 756 484 739T442 722Q418 722 401 739T384 780Q384 805 401 822T442 839Q467 839 484 822T501 780ZM292 780Q292 756 275 739T233 722Q209 722 192 739T174 780Q174 805 191 822T233 839Q258 839 275 822T292 780ZM539 0L490 129H184L135 0H2L264 667H410L672 0H539ZM337 550L217 232H457L337 550Z"  />
<glyph unicode="&#xC5;" horiz-adv-x="673" d="M338 693Q317 693 299 701T266 723T243 755T235 795Q235 816 243 834T265 867T298 890T338 898Q359 898 377 890T409 868T431 835T439 795Q439 774 431 756T410 723T378 701T338 693ZM338 743Q359 743 374 758T389 795Q389 817 374 832T338 847Q316 847 301 832T286 795Q286 774 301 759T338 743ZM539 0L490 129H184L135 0H2L264 667H410L672 0H539ZM337 550L217 232H457L337 550Z"  />
<glyph unicode="&#xC6;" horiz-adv-x="960" d="M455 0V129H209L132 0H-2L408 667H912V564H572V392H905V289H572V103H912V0H455ZM455 550L264 232H455V550Z"  />
<glyph unicode="&#xC7;" horiz-adv-x="682" d="M386 -190Q352 -190 324 -181T280 -159L303 -113Q322 -128 342 -135T384 -142Q406 -142 422 -133T439 -106Q439 -76 407 -76Q385 -76 372 -91L332 -68L353 -10Q286 -4 229 23T131 96T66 201T42 333Q42 410 69 473T143 582T254 653T392 678Q442 678 483 666T557 634T615 586T659 529L560 477Q536 519 491 546T392 574Q342 574 300 556T228 506T180 430T162 333Q162 281 179 237T227 161T300 110T392 92Q446 92 491 119T560 189L660 139Q642 110 618 84T562 37T492 3T406 -12L392 -49Q408 -38 428 -38Q456 -38 475 -57T494 -107Q494 -145 463 -167T386 -190Z"  />
<glyph unicode="&#xC8;" horiz-adv-x="577" d="M300 728L135 872H235L375 728H300ZM71 0V667H528V564H188V392H521V289H188V103H528V0H71Z"  />
<glyph unicode="&#xC9;" horiz-adv-x="577" d="M300 728H225L365 872H465L300 728ZM71 0V667H528V564H188V392H521V289H188V103H528V0H71Z"  />
<glyph unicode="&#xCA;" horiz-adv-x="577" d="M376 728L298 825L224 728H157L250 872H346L442 728H376ZM71 0V667H528V564H188V392H521V289H188V103H528V0H71Z"  />
<glyph unicode="&#xCB;" horiz-adv-x="577" d="M464 780Q464 756 447 739T405 722Q381 722 364 739T347 780Q347 805 364 822T405 839Q430 839 447 822T464 780ZM255 780Q255 756 238 739T196 722Q172 722 155 739T137 780Q137 805 154 822T196 839Q221 839 238 822T255 780ZM71 0V667H528V564H188V392H521V289H188V103H528V0H71Z"  />
<glyph unicode="&#xCC;" horiz-adv-x="259" d="M129 728L-36 872H64L204 728H129ZM71 0V667H188V0H71Z"  />
<glyph unicode="&#xCD;" horiz-adv-x="259" d="M132 728H57L197 872H297L132 728ZM71 0V667H188V0H71Z"  />
<glyph unicode="&#xCE;" horiz-adv-x="259" d="M206 728L128 825L54 728H-13L80 872H176L272 728H206ZM71 0V667H188V0H71Z"  />
<glyph unicode="&#xCF;" horiz-adv-x="259" d="M293 779Q293 755 276 738T234 721Q210 721 193 738T176 779Q176 804 193 821T234 838Q259 838 276 821T293 779ZM84 779Q84 755 67 738T25 721Q1 721 -16 738T-34 779Q-34 804 -17 821T25 838Q50 838 67 821T84 779ZM71 0V667H188V0H71Z"  />
<glyph unicode="&#xD0;" horiz-adv-x="736" d="M97 0V286H10V371H97V667H345Q423 667 487 643T598 574T669 468T694 334Q694 260 669 199T598 93T488 25T346 0H97ZM214 286V103H345Q399 103 442 121T514 170T558 244T574 334Q574 382 559 424T516 497T444 546T346 564H214V371H373V286H214Z"  />
<glyph unicode="&#xD1;" horiz-adv-x="720" d="M416 726Q390 726 374 738T346 765T324 792T297 804Q280 804 268 787T256 732H198Q198 794 224 830T301 866Q327 866 343 854T371 827T393 800T420 788Q437 788 449 805T462 860H519Q519 798 493 762T416 726ZM536 0L188 477V0H71V667H191L532 205V667H649V0H536Z"  />
<glyph unicode="&#xD2;" horiz-adv-x="765" d="M386 728L221 872H321L461 728H386ZM383 -12Q308 -12 246 14T138 86T67 195T42 333Q42 408 67 471T137 580T245 652T383 678Q458 678 520 652T628 580T698 471T724 333Q724 258 699 195T628 86T521 14T383 -12ZM383 92Q433 92 474 110T544 161T588 237T604 333Q604 385 589 429T544 505T474 555T383 574Q332 574 292 556T222 505T178 429T162 333Q162 282 177 238T222 161T291 111T383 92Z"  />
<glyph unicode="&#xD3;" horiz-adv-x="765" d="M384 728H309L449 872H549L384 728ZM383 -12Q308 -12 246 14T138 86T67 195T42 333Q42 408 67 471T137 580T245 652T383 678Q458 678 520 652T628 580T698 471T724 333Q724 258 699 195T628 86T521 14T383 -12ZM383 92Q433 92 474 110T544 161T588 237T604 333Q604 385 589 429T544 505T474 555T383 574Q332 574 292 556T222 505T178 429T162 333Q162 282 177 238T222 161T291 111T383 92Z"  />
<glyph unicode="&#xD4;" horiz-adv-x="765" d="M462 728L384 825L310 728H243L336 872H432L528 728H462ZM383 -12Q308 -12 246 14T138 86T67 195T42 333Q42 408 67 471T137 580T245 652T383 678Q458 678 520 652T628 580T698 471T724 333Q724 258 699 195T628 86T521 14T383 -12ZM383 92Q433 92 474 110T544 161T588 237T604 333Q604 385 589 429T544 505T474 555T383 574Q332 574 292 556T222 505T178 429T162 333Q162 282 177 238T222 161T291 111T383 92Z"  />
<glyph unicode="&#xD5;" horiz-adv-x="765" d="M441 726Q415 726 399 738T371 765T349 792T322 804Q305 804 293 787T281 732H223Q223 794 249 830T326 866Q352 866 368 854T396 827T418 800T445 788Q462 788 474 805T487 860H544Q544 798 518 762T441 726ZM383 -12Q308 -12 246 14T138 86T67 195T42 333Q42 408 67 471T137 580T245 652T383 678Q458 678 520 652T628 580T698 471T724 333Q724 258 699 195T628 86T521 14T383 -12ZM383 92Q433 92 474 110T544 161T588 237T604 333Q604 385 589 429T544 505T474 555T383 574Q332 574 292 556T222 505T178 429T162 333Q162 282 177 238T222 161T291 111T383 92Z"  />
<glyph unicode="&#xD6;" horiz-adv-x="765" d="M547 780Q547 756 530 739T488 722Q464 722 447 739T430 780Q430 805 447 822T488 839Q513 839 530 822T547 780ZM338 780Q338 756 321 739T279 722Q255 722 238 739T220 780Q220 805 237 822T279 839Q304 839 321 822T338 780ZM383 -12Q308 -12 246 14T138 86T67 195T42 333Q42 408 67 471T137 580T245 652T383 678Q458 678 520 652T628 580T698 471T724 333Q724 258 699 195T628 86T521 14T383 -12ZM383 92Q433 92 474 110T544 161T588 237T604 333Q604 385 589 429T544 505T474 555T383 574Q332 574 292 556T222 505T178 429T162 333Q162 282 177 238T222 161T291 111T383 92Z"  />
<glyph unicode="&#xD7;" horiz-adv-x="502" d="M251 287L107 142L59 190L204 334L59 479L107 526L251 382L396 526L443 479L299 334L443 190L396 142L251 287Z"  />
<glyph unicode="&#xD8;" horiz-adv-x="765" d="M383 -12Q282 -12 204 34L179 0H92L147 76Q97 123 70 188T42 333Q42 408 67 471T137 580T245 652T383 678Q431 678 473 667T553 636L575 667H662L611 596Q665 549 694 482T724 333Q724 258 699 195T628 86T521 14T383 -12ZM383 92Q433 92 474 110T544 161T588 237T604 333Q604 384 589 428T544 505L268 122Q292 108 321 100T383 92ZM162 333Q162 235 214 169L489 548Q442 574 383 574Q332 574 292 556T222 505T178 429T162 333Z"  />
<glyph unicode="&#xD9;" horiz-adv-x="720" d="M362 728L197 872H297L437 728H362ZM360 -12Q288 -12 234 8T143 64T89 151T71 264V667H190V267Q190 187 233 140T360 92Q444 92 487 139T530 267V667H649V264Q649 202 631 151T577 64T487 8T360 -12Z"  />
<glyph unicode="&#xDA;" horiz-adv-x="720" d="M361 728H286L426 872H526L361 728ZM360 -12Q288 -12 234 8T143 64T89 151T71 264V667H190V267Q190 187 233 140T360 92Q444 92 487 139T530 267V667H649V264Q649 202 631 151T577 64T487 8T360 -12Z"  />
<glyph unicode="&#xDB;" horiz-adv-x="720" d="M442 728L364 825L290 728H223L316 872H412L508 728H442ZM360 -12Q288 -12 234 8T143 64T89 151T71 264V667H190V267Q190 187 233 140T360 92Q444 92 487 139T530 267V667H649V264Q649 202 631 151T577 64T487 8T360 -12Z"  />
<glyph unicode="&#xDC;" horiz-adv-x="720" d="M525 780Q525 756 508 739T466 722Q442 722 425 739T408 780Q408 805 425 822T466 839Q491 839 508 822T525 780ZM316 780Q316 756 299 739T257 722Q233 722 216 739T198 780Q198 805 215 822T257 839Q282 839 299 822T316 780ZM360 -12Q288 -12 234 8T143 64T89 151T71 264V667H190V267Q190 187 233 140T360 92Q444 92 487 139T530 267V667H649V264Q649 202 631 151T577 64T487 8T360 -12Z"  />
<glyph unicode="&#xDD;" horiz-adv-x="637" d="M322 728H247L387 872H487L322 728ZM261 0V277L2 667H136L319 382L502 667H636L378 277V0H261Z"  />
<glyph unicode="&#xDE;" horiz-adv-x="609" d="M71 0V667H188V555H365Q417 555 457 538T526 493T568 426T582 345Q582 302 568 265T526 199T458 154T365 137H188V0H71ZM349 240Q399 240 430 268T462 345Q462 393 431 422T349 452H188V240H349Z"  />
<glyph unicode="&#xDF;" horiz-adv-x="623" d="M606 141Q606 109 593 81T556 33T495 0T412 -12Q376 -12 348 -6T297 11T256 36T220 67L266 139Q287 112 326 93T412 73Q460 73 482 92T505 137Q505 160 485 172T435 194T369 211T304 236T253 278T233 350Q233 389 254 414T299 458T345 491T366 527Q366 541 359 552T339 570T311 580T279 584Q234 584 204 558T174 485V0H69V485Q69 524 83 559T125 620T191 662T281 677Q318 677 353 668T415 641T458 598T474 541Q474 513 464 493T438 458T404 431T371 408T345 383T334 353Q334 332 354 321T404 303T470 287T535 262T586 217T606 141Z"  />
<glyph unicode="&#xE0;" horiz-adv-x="581" d="M299 556L134 700H234L374 556H299ZM408 0V66Q380 30 341 9T253 -12Q207 -12 168 5T100 55T55 135T39 242Q39 300 55 347T99 427T167 477T253 495Q299 495 339 475T408 416V483H513V0H408ZM284 81Q302 81 320 86T355 100T385 120T408 146V337Q399 350 386 362T356 383T321 397T284 402Q252 402 227 390T184 357T157 307T147 242Q147 207 156 178T184 127T227 93T284 81Z"  />
<glyph unicode="&#xE1;" horiz-adv-x="581" d="M298 556H223L363 700H463L298 556ZM408 0V66Q380 30 341 9T253 -12Q207 -12 168 5T100 55T55 135T39 242Q39 300 55 347T99 427T167 477T253 495Q299 495 339 475T408 416V483H513V0H408ZM284 81Q302 81 320 86T355 100T385 120T408 146V337Q399 350 386 362T356 383T321 397T284 402Q252 402 227 390T184 357T157 307T147 242Q147 207 156 178T184 127T227 93T284 81Z"  />
<glyph unicode="&#xE2;" horiz-adv-x="581" d="M374 556L296 653L222 556H155L248 700H344L440 556H374ZM408 0V66Q380 30 341 9T253 -12Q207 -12 168 5T100 55T55 135T39 242Q39 300 55 347T99 427T167 477T253 495Q299 495 339 475T408 416V483H513V0H408ZM284 81Q302 81 320 86T355 100T385 120T408 146V337Q399 350 386 362T356 383T321 397T284 402Q252 402 227 390T184 357T157 307T147 242Q147 207 156 178T184 127T227 93T284 81Z"  />
<glyph unicode="&#xE3;" horiz-adv-x="581" d="M356 554Q330 554 314 566T286 593T264 620T237 632Q220 632 208 615T196 560H138Q138 622 164 658T241 694Q267 694 283 682T311 655T333 628T360 616Q377 616 389 633T402 688H459Q459 626 433 590T356 554ZM408 0V66Q380 30 341 9T253 -12Q207 -12 168 5T100 55T55 135T39 242Q39 300 55 347T99 427T167 477T253 495Q299 495 339 475T408 416V483H513V0H408ZM284 81Q302 81 320 86T355 100T385 120T408 146V337Q399 350 386 362T356 383T321 397T284 402Q252 402 227 390T184 357T157 307T147 242Q147 207 156 178T184 127T227 93T284 81Z"  />
<glyph unicode="&#xE4;" horiz-adv-x="581" d="M461 608Q461 584 444 567T402 550Q378 550 361 567T344 608Q344 633 361 650T402 667Q427 667 444 650T461 608ZM252 608Q252 584 235 567T193 550Q169 550 152 567T134 608Q134 633 151 650T193 667Q218 667 235 650T252 608ZM408 0V66Q380 30 341 9T253 -12Q207 -12 168 5T100 55T55 135T39 242Q39 300 55 347T99 427T167 477T253 495Q299 495 339 475T408 416V483H513V0H408ZM284 81Q302 81 320 86T355 100T385 120T408 146V337Q399 350 386 362T356 383T321 397T284 402Q252 402 227 390T184 357T157 307T147 242Q147 207 156 178T184 127T227 93T284 81Z"  />
<glyph unicode="&#xE5;" horiz-adv-x="581" d="M297 551Q276 551 258 559T225 581T202 613T194 653Q194 674 202 692T224 725T257 748T297 756Q318 756 336 748T368 726T390 693T398 653Q398 632 390 614T369 581T337 559T297 551ZM297 601Q318 601 333 616T348 653Q348 675 333 690T297 705Q275 705 260 690T245 653Q245 632 260 617T297 601ZM408 0V66Q380 30 341 9T253 -12Q207 -12 168 5T100 55T55 135T39 242Q39 300 55 347T99 427T167 477T253 495Q299 495 339 475T408 416V483H513V0H408ZM284 81Q302 81 320 86T355 100T385 120T408 146V337Q399 350 386 362T356 383T321 397T284 402Q252 402 227 390T184 357T157 307T147 242Q147 207 156 178T184 127T227 93T284 81Z"  />
<glyph unicode="&#xE6;" horiz-adv-x="923" d="M408 0V66Q380 30 341 9T253 -12Q207 -12 168 5T100 55T55 135T39 242Q39 300 55 347T99 427T167 477T253 495Q299 495 339 475T408 416V483H513V404Q539 446 580 470T678 495Q726 495 764 476T830 421T872 338T887 233V207H513Q516 180 527 156T558 115T605 87T667 76Q702 76 740 90T804 130L852 59Q823 29 780 9T685 -12Q627 -12 584 11T513 79V0H408ZM284 81Q302 81 320 86T355 100T385 120T408 146V337Q399 350 386 362T356 383T321 397T284 402Q252 402 227 390T184 357T157 307T147 242Q147 207 156 178T184 127T227 93T284 81ZM785 282Q784 303 776 325T752 366T710 397T649 409Q615 409 591 398T550 368T524 327T513 282H785Z"  />
<glyph unicode="&#xE7;" horiz-adv-x="498" d="M291 -192Q257 -192 229 -183T185 -161L208 -115Q227 -130 247 -137T289 -144Q311 -144 327 -135T344 -108Q344 -78 312 -78Q290 -78 277 -93L237 -70L258 -10Q209 -5 169 16T100 70T55 147T39 242Q39 297 57 343T109 423T187 476T288 495Q324 495 352 488T403 469T443 442T473 409L404 346Q364 402 293 402Q227 402 187 358T147 242Q147 207 157 178T187 127T233 93T293 81Q363 81 404 139L473 74Q450 43 412 19T312 -11L297 -51Q313 -40 333 -40Q361 -40 380 -59T399 -109Q399 -147 368 -169T291 -192Z"  />
<glyph unicode="&#xE8;" horiz-adv-x="557" d="M292 -12Q237 -12 191 6T111 57T58 138T39 242Q39 294 57 340T107 421T185 475T284 495Q338 495 382 476T457 421T504 338T521 233V207H149Q152 180 163 156T194 114T241 85T302 74Q338 74 376 88T440 128L488 59Q451 24 400 6T292 -12ZM420 282Q419 303 411 325T386 366T344 397T283 409Q250 409 225 398T184 368T158 327T148 282H420ZM284 556L119 700H219L359 556H284Z"  />
<glyph unicode="&#xE9;" horiz-adv-x="557" d="M292 -12Q237 -12 191 6T111 57T58 138T39 242Q39 294 57 340T107 421T185 475T284 495Q338 495 382 476T457 421T504 338T521 233V207H149Q152 180 163 156T194 114T241 85T302 74Q338 74 376 88T440 128L488 59Q451 24 400 6T292 -12ZM420 282Q419 303 411 325T386 366T344 397T283 409Q250 409 225 398T184 368T158 327T148 282H420ZM285 556H210L350 700H450L285 556Z"  />
<glyph unicode="&#xEA;" horiz-adv-x="557" d="M292 -12Q237 -12 191 6T111 57T58 138T39 242Q39 294 57 340T107 421T185 475T284 495Q338 495 382 476T457 421T504 338T521 233V207H149Q152 180 163 156T194 114T241 85T302 74Q338 74 376 88T440 128L488 59Q451 24 400 6T292 -12ZM420 282Q419 303 411 325T386 366T344 397T283 409Q250 409 225 398T184 368T158 327T148 282H420ZM362 556L284 653L210 556H143L236 700H332L428 556H362Z"  />
<glyph unicode="&#xEB;" horiz-adv-x="557" d="M292 -12Q237 -12 191 6T111 57T58 138T39 242Q39 294 57 340T107 421T185 475T284 495Q338 495 382 476T457 421T504 338T521 233V207H149Q152 180 163 156T194 114T241 85T302 74Q338 74 376 88T440 128L488 59Q451 24 400 6T292 -12ZM420 282Q419 303 411 325T386 366T344 397T283 409Q250 409 225 398T184 368T158 327T148 282H420ZM448 608Q448 584 431 567T389 550Q365 550 348 567T331 608Q331 633 348 650T389 667Q414 667 431 650T448 608ZM239 608Q239 584 222 567T180 550Q156 550 139 567T121 608Q121 633 138 650T180 667Q205 667 222 650T239 608Z"  />
<glyph unicode="&#xEC;" horiz-adv-x="241" d="M120 556L-45 700H55L195 556H120ZM68 0V483H173V0H68Z"  />
<glyph unicode="&#xED;" horiz-adv-x="241" d="M121 556H46L186 700H286L121 556ZM68 0V483H173V0H68Z"  />
<glyph unicode="&#xEE;" horiz-adv-x="241" d="M197 556L119 653L45 556H-22L71 700H167L263 556H197ZM68 0V483H173V0H68Z"  />
<glyph unicode="&#xEF;" horiz-adv-x="241" d="M284 608Q284 584 267 567T225 550Q201 550 184 567T167 608Q167 633 184 650T225 667Q250 667 267 650T284 608ZM75 608Q75 584 58 567T16 550Q-8 550 -25 567T-43 608Q-43 633 -26 650T16 667Q41 667 58 650T75 608ZM68 0V483H173V0H68Z"  />
<glyph unicode="&#xF0;" horiz-adv-x="574" d="M90 533L202 582Q185 593 168 603T134 625L191 710Q223 690 252 671T310 630L415 676L437 626L358 591Q438 520 486 436T535 250Q535 193 518 145T469 62T391 8T287 -12Q231 -12 185 6T107 56T57 133T39 229Q39 281 55 325T100 400T168 450T255 468Q305 468 344 447T414 378Q391 425 349 466T256 545L111 481L90 533ZM287 81Q321 81 347 93T390 125T417 172T426 229Q426 258 417 284T391 331T347 364T287 376Q254 376 228 364T184 332T157 285T148 229Q148 199 157 173T184 126T228 93T287 81Z"  />
<glyph unicode="&#xF1;" horiz-adv-x="568" d="M400 0V302Q400 359 374 380T302 402Q262 402 230 382T178 338V0H73V483H178V418Q190 432 207 446T247 471T294 488T349 495Q427 495 466 455T505 340V0H400ZM342 554Q316 554 300 566T272 593T250 620T223 632Q206 632 194 615T182 560H124Q124 622 150 658T227 694Q253 694 269 682T297 655T319 628T346 616Q363 616 375 633T388 688H445Q445 626 419 590T342 554Z"  />
<glyph unicode="&#xF2;" horiz-adv-x="574" d="M287 -12Q229 -12 183 8T105 63T56 144T39 242Q39 294 56 340T105 420T183 475T287 495Q345 495 391 475T469 421T518 340T535 242Q535 190 518 144T469 64T391 9T287 -12ZM287 81Q321 81 347 94T390 129T417 180T426 242Q426 274 417 303T391 354T347 389T287 402Q254 402 228 389T184 354T157 303T148 242Q148 210 157 181T184 129T228 94T287 81ZM287 556L122 700H222L362 556H287Z"  />
<glyph unicode="&#xF3;" horiz-adv-x="574" d="M287 -12Q229 -12 183 8T105 63T56 144T39 242Q39 294 56 340T105 420T183 475T287 495Q345 495 391 475T469 421T518 340T535 242Q535 190 518 144T469 64T391 9T287 -12ZM287 81Q321 81 347 94T390 129T417 180T426 242Q426 274 417 303T391 354T347 389T287 402Q254 402 228 389T184 354T157 303T148 242Q148 210 157 181T184 129T228 94T287 81ZM287 556H212L352 700H452L287 556Z"  />
<glyph unicode="&#xF4;" horiz-adv-x="574" d="M287 -12Q229 -12 183 8T105 63T56 144T39 242Q39 294 56 340T105 420T183 475T287 495Q345 495 391 475T469 421T518 340T535 242Q535 190 518 144T469 64T391 9T287 -12ZM287 81Q321 81 347 94T390 129T417 180T426 242Q426 274 417 303T391 354T347 389T287 402Q254 402 228 389T184 354T157 303T148 242Q148 210 157 181T184 129T228 94T287 81ZM365 556L287 653L213 556H146L239 700H335L431 556H365Z"  />
<glyph unicode="&#xF5;" horiz-adv-x="574" d="M287 -12Q229 -12 183 8T105 63T56 144T39 242Q39 294 56 340T105 420T183 475T287 495Q345 495 391 475T469 421T518 340T535 242Q535 190 518 144T469 64T391 9T287 -12ZM287 81Q321 81 347 94T390 129T417 180T426 242Q426 274 417 303T391 354T347 389T287 402Q254 402 228 389T184 354T157 303T148 242Q148 210 157 181T184 129T228 94T287 81ZM345 554Q319 554 303 566T275 593T253 620T226 632Q209 632 197 615T185 560H127Q127 622 153 658T230 694Q256 694 272 682T300 655T322 628T349 616Q366 616 378 633T391 688H448Q448 626 422 590T345 554Z"  />
<glyph unicode="&#xF6;" horiz-adv-x="574" d="M287 -12Q229 -12 183 8T105 63T56 144T39 242Q39 294 56 340T105 420T183 475T287 495Q345 495 391 475T469 421T518 340T535 242Q535 190 518 144T469 64T391 9T287 -12ZM287 81Q321 81 347 94T390 129T417 180T426 242Q426 274 417 303T391 354T347 389T287 402Q254 402 228 389T184 354T157 303T148 242Q148 210 157 181T184 129T228 94T287 81ZM450 608Q450 584 433 567T391 550Q367 550 350 567T333 608Q333 633 350 650T391 667Q416 667 433 650T450 608ZM241 608Q241 584 224 567T182 550Q158 550 141 567T123 608Q123 633 140 650T182 667Q207 667 224 650T241 608Z"  />
<glyph unicode="&#xF7;" horiz-adv-x="511" d="M310 521Q310 498 295 482T256 465Q233 465 217 481T201 521Q201 544 217 559T256 574Q279 574 294 559T310 521ZM29 304V371H482V304H29ZM310 152Q310 129 295 113T256 97Q233 97 217 113T201 152Q201 175 217 190T256 206Q279 206 294 191T310 152Z"  />
<glyph unicode="&#xF8;" horiz-adv-x="574" d="M51 0L104 64Q72 99 56 144T39 242Q39 294 56 340T105 420T183 475T287 495Q328 495 362 485T426 456L449 483H518L467 422Q500 387 517 341T535 242Q535 190 518 144T469 64T391 9T287 -12Q203 -12 144 30L119 0H51ZM287 81Q321 81 347 94T390 129T417 180T426 242Q426 297 400 340L207 107Q224 95 243 88T287 81ZM148 242Q148 216 154 191T172 146L363 379Q348 390 329 396T287 402Q254 402 228 389T184 354T157 303T148 242Z"  />
<glyph unicode="&#xF9;" horiz-adv-x="567" d="M394 0V64Q368 35 325 12T224 -12Q146 -12 107 27T68 141V483H173V180Q173 124 199 103T271 81Q311 81 343 100T394 144V483H499V0H394ZM286 556L121 700H221L361 556H286Z"  />
<glyph unicode="&#xFA;" horiz-adv-x="567" d="M394 0V64Q368 35 325 12T224 -12Q146 -12 107 27T68 141V483H173V180Q173 124 199 103T271 81Q311 81 343 100T394 144V483H499V0H394ZM285 556H210L350 700H450L285 556Z"  />
<glyph unicode="&#xFB;" horiz-adv-x="567" d="M394 0V64Q368 35 325 12T224 -12Q146 -12 107 27T68 141V483H173V180Q173 124 199 103T271 81Q311 81 343 100T394 144V483H499V0H394ZM361 556L283 653L209 556H142L235 700H331L427 556H361Z"  />
<glyph unicode="&#xFC;" horiz-adv-x="567" d="M394 0V64Q368 35 325 12T224 -12Q146 -12 107 27T68 141V483H173V180Q173 124 199 103T271 81Q311 81 343 100T394 144V483H499V0H394ZM450 608Q450 584 433 567T391 550Q367 550 350 567T333 608Q333 633 350 650T391 667Q416 667 433 650T450 608ZM241 608Q241 584 224 567T182 550Q158 550 141 567T123 608Q123 633 140 650T182 667Q207 667 224 650T241 608Z"  />
<glyph unicode="&#xFD;" horiz-adv-x="567" d="M283 556H208L348 700H448L283 556ZM258 -196Q197 -196 150 -179T63 -124L112 -48Q138 -81 177 -95T258 -110Q322 -110 358 -76T394 24V80Q368 51 325 28T224 4Q146 4 107 43T68 157V483H173V196Q173 140 199 119T271 97Q311 97 343 116T394 160V483H499V24Q499 -30 481 -71T431 -140T354 -182T258 -196Z"  />
<glyph unicode="&#xFE;" horiz-adv-x="579" d="M328 -12Q282 -12 243 8T173 67V-184H68V667H173V417Q200 453 240 474T328 495Q375 495 414 478T481 429T526 349T542 242Q542 182 526 135T482 56T414 6T328 -12ZM297 81Q360 81 397 126T434 242Q434 313 397 357T297 402Q260 402 226 384T173 338V147Q182 133 195 121T225 100T260 86T297 81Z"  />
<glyph unicode="&#xFF;" horiz-adv-x="567" d="M444 608Q444 584 427 567T385 550Q361 550 344 567T327 608Q327 633 344 650T385 667Q410 667 427 650T444 608ZM235 608Q235 584 218 567T176 550Q152 550 135 567T117 608Q117 633 134 650T176 667Q201 667 218 650T235 608ZM258 -196Q197 -196 150 -179T63 -124L112 -48Q138 -81 177 -95T258 -110Q322 -110 358 -76T394 24V80Q368 51 325 28T224 4Q146 4 107 43T68 157V483H173V196Q173 140 199 119T271 97Q311 97 343 116T394 160V483H499V24Q499 -30 481 -71T431 -140T354 -182T258 -196Z"  />
<glyph unicode="&#x152;" horiz-adv-x="1093" d="M589 0V97Q571 70 547 50T494 16T434 -5T371 -12Q298 -12 238 14T134 85T66 194T42 333Q42 408 66 471T133 580T237 651T371 677Q402 677 433 671T493 651T546 618T589 571V667H1046V564H706V392H1039V289H706V103H1046V0H589ZM589 440Q562 506 509 539T387 573Q335 573 294 555T223 505T178 429T162 333Q162 282 177 238T222 161T293 111T387 92Q455 92 508 126T589 228V440Z"  />
<glyph unicode="&#x153;" horiz-adv-x="945" d="M536 207Q539 180 550 156T581 114T628 85T690 74Q725 74 763 88T827 128L875 59Q839 24 788 6T679 -12Q636 -12 604 -1T548 29T508 68T480 108Q469 90 453 69T414 30T359 0T287 -12Q229 -12 183 8T105 63T56 144T39 242Q39 294 56 340T105 420T183 475T287 495Q328 495 359 483T414 453T453 414T480 375Q490 393 506 414T546 453T600 483T671 495Q725 495 769 476T844 421T892 338T909 233V207H536ZM807 282Q806 303 798 325T774 366T732 397T671 409Q637 409 613 398T572 368T546 327T535 282H807ZM426 242Q426 276 417 305T389 355T345 389T287 402Q255 402 229 390T185 356T158 305T148 242Q148 208 157 179T185 127T229 93T287 80Q319 80 345 92T389 127T416 178T426 242Z"  />
<glyph unicode="&#x160;" horiz-adv-x="594" d="M243 728L147 872H214L291 776L366 872H432L339 728H243ZM300 -12Q207 -12 140 17T28 94L94 185Q128 148 181 120T305 92Q341 92 366 100T407 121T430 150T438 184Q438 219 410 237T338 269T244 294T151 327T79 384T50 482Q50 524 67 559T116 621T193 663T293 678Q371 678 433 654T542 584L476 497Q436 537 386 555T282 574Q231 574 201 551T170 491Q170 460 198 443T270 414T364 390T457 355T529 295T558 195Q558 153 543 116T497 50T416 5T300 -12Z"  />
<glyph unicode="&#x161;" horiz-adv-x="472" d="M234 -12Q171 -12 118 7T27 64L75 139Q88 126 106 114T146 93T191 78T238 72Q286 72 310 89T334 136Q334 160 313 172T259 192T188 208T118 232T64 275T42 349Q42 379 54 405T91 452T150 483T232 495Q294 495 340 476T419 428L375 354Q353 378 316 395T232 412Q190 412 167 395T143 352Q143 331 164 320T218 302T289 286T359 261T413 216T435 139Q435 107 422 79T384 31T321 0T234 -12ZM187 556L91 700H158L235 604L310 700H376L283 556H187Z"  />
<glyph unicode="&#x178;" horiz-adv-x="637" d="M485 780Q485 756 468 739T426 722Q402 722 385 739T368 780Q368 805 385 822T426 839Q451 839 468 822T485 780ZM276 780Q276 756 259 739T217 722Q193 722 176 739T158 780Q158 805 175 822T217 839Q242 839 259 822T276 780ZM261 0V277L2 667H136L319 382L502 667H636L378 277V0H261Z"  />
<glyph unicode="&#x17D;" horiz-adv-x="589" d="M248 728L152 872H219L296 776L371 872H437L344 728H248ZM45 0V95L385 564H45V667H538V573L196 103H545V0H45Z"  />
<glyph unicode="&#x17E;" horiz-adv-x="476" d="M47 0V80L285 392H47V483H426V407L184 92H430V0H47ZM185 556L89 700H156L233 604L308 700H374L281 556H185Z"  />
<glyph unicode="&#x192;" horiz-adv-x="445" d="M15 -161L105 245H45V338H125L166 520Q182 592 233 634T353 677Q386 677 413 669T461 638L414 552Q398 574 367 574Q335 574 312 554T280 497L245 338H369V245H225L134 -161H15Z"  />
<glyph unicode="&#x2C6;" horiz-adv-x="285" d="M219 556L141 653L67 556H0L93 700H189L285 556H219Z"  />
<glyph unicode="&#x2DC;" horiz-adv-x="321" d="M218 554Q192 554 176 566T148 593T126 620T99 632Q82 632 70 615T58 560H0Q0 622 26 658T103 694Q129 694 145 682T173 655T195 628T222 616Q239 616 251 633T264 688H321Q321 626 295 590T218 554Z"  />
<glyph unicode="&#x2013;" horiz-adv-x="593" d="M30 197V287H563V197H30Z"  />
<glyph unicode="&#x2014;" horiz-adv-x="833" d="M30 197V287H803V197H30Z"  />
<glyph unicode="&#x2018;" horiz-adv-x="245" d="M43 507Q43 559 68 604T136 678L184 639Q172 632 160 621T138 598T121 572T112 545Q114 546 119 547T129 548Q154 548 171 531T188 485Q188 456 169 436T120 416Q89 416 66 439T43 507Z"  />
<glyph unicode="&#x2019;" horiz-adv-x="245" d="M198 586Q198 534 173 490T105 416L57 454Q69 461 81 472T103 495T120 521T129 548Q125 546 112 546Q87 546 70 563T53 609Q53 637 72 657T121 677Q152 677 175 654T198 586Z"  />
<glyph unicode="&#x201A;" horiz-adv-x="245" d="M198 38Q198 -14 173 -59T105 -133L57 -94Q69 -87 81 -76T103 -53T120 -27T129 0Q127 -1 122 -2T112 -3Q87 -3 70 15T53 61Q53 89 72 109T121 129Q152 129 175 106T198 38Z"  />
<glyph unicode="&#x201C;" horiz-adv-x="430" d="M46 507Q46 559 72 604T140 678L187 639Q175 632 163 621T142 598T125 572T115 545Q117 546 122 547T132 548Q158 548 175 531T192 485Q192 456 172 436T124 416Q93 416 70 439T46 507ZM231 507Q231 559 257 604T325 678L372 639Q360 632 348 621T327 598T310 572T300 545Q302 546 307 547T317 548Q343 548 360 531T377 485Q377 456 357 436T309 416Q278 416 255 439T231 507Z"  />
<glyph unicode="&#x201D;" horiz-adv-x="430" d="M383 586Q383 534 358 490T290 416L242 454Q254 461 266 472T288 495T305 521T314 548Q310 546 297 546Q272 546 255 563T238 609Q238 637 257 657T306 677Q337 677 360 654T383 586ZM198 586Q198 534 173 490T105 416L57 454Q69 461 81 472T103 495T120 521T129 548Q125 546 112 546Q87 546 70 563T53 609Q53 637 72 657T121 677Q152 677 175 654T198 586Z"  />
<glyph unicode="&#x201E;" horiz-adv-x="430" d="M198 38Q198 -14 173 -59T105 -133L57 -94Q69 -87 81 -76T103 -53T120 -27T129 0Q127 -1 122 -2T112 -3Q87 -3 70 15T53 61Q53 89 72 109T121 129Q152 129 175 106T198 38ZM383 38Q383 -14 358 -59T290 -133L242 -94Q254 -87 266 -76T288 -53T305 -27T314 0Q312 -1 307 -2T297 -3Q272 -3 255 15T238 61Q238 89 257 109T306 129Q337 129 360 106T383 38Z"  />
<glyph unicode="&#x2020;" horiz-adv-x="271" d="M161 530L165 327H106L110 530L21 526V580L110 577L106 677H165L161 577L250 580V526L161 530Z"  />
<glyph unicode="&#x2021;" horiz-adv-x="271" d="M250 526L161 530V328L250 332V278L161 281L165 180H106L110 281L21 278V332L110 328V530L21 526V580L110 577L106 677H165L161 577L250 580V526Z"  />
<glyph unicode="&#x2022;" horiz-adv-x="358" d="M294 242Q294 219 285 199T261 163T225 138T180 129Q156 129 136 138T100 162T75 198T66 242Q66 266 75 286T99 322T135 347T180 356Q204 356 224 347T260 323T285 287T294 242Z"  />
<glyph unicode="&#x2026;" horiz-adv-x="735" d="M192 60Q192 31 172 11T123 -10Q94 -10 74 10T53 60Q53 88 73 108T123 129Q152 129 172 109T192 60ZM437 60Q437 31 417 11T368 -10Q339 -10 319 10T298 60Q298 88 318 108T368 129Q397 129 417 109T437 60ZM682 60Q682 31 662 11T613 -10Q584 -10 564 10T543 60Q543 88 563 108T613 129Q642 129 662 109T682 60Z"  />
<glyph unicode="&#x2030;" horiz-adv-x="1106" d="M360 511Q360 476 348 446T315 394T262 359T194 346Q157 346 127 358T74 393T40 446T28 511Q28 546 40 576T74 629T126 664T194 677Q231 677 262 665T314 630T348 577T360 511ZM196 0H129L555 667H623L196 0ZM719 153Q719 118 707 88T673 36T621 1T553 -12Q516 -12 486 0T433 35T399 88T387 153Q387 188 399 218T433 271T485 306T553 319Q590 319 620 307T673 272T707 219T719 153ZM283 511Q283 559 258 588T194 617Q156 617 131 588T106 511Q106 464 131 436T194 407Q233 407 258 435T283 511ZM642 153Q642 201 617 230T553 259Q514 259 489 230T464 153Q464 106 489 78T553 49Q592 49 617 77T642 153ZM1078 153Q1078 118 1066 88T1032 36T980 1T912 -12Q875 -12 845 0T792 35T758 88T746 153Q746 188 758 218T792 271T844 306T912 319Q949 319 979 307T1032 272T1066 219T1078 153ZM1001 153Q1001 201 976 230T912 259Q873 259 848 230T823 153Q823 106 848 78T912 49Q951 49 976 77T1001 153Z"  />
<glyph unicode="&#x2039;" horiz-adv-x="320" d="M190 63L30 243L190 420H290L130 243L290 63H190Z"  />
<glyph unicode="&#x203A;" horiz-adv-x="320" d="M130 63H30L190 243L30 420H130L290 243L130 63Z"  />
<glyph unicode="&#x20AC;" horiz-adv-x="703" d="M415 -12Q354 -12 300 5T202 53T127 129T79 230H26V298H66Q65 306 65 315T65 333Q65 343 65 352T67 371H26V439H80Q96 494 128 538T203 613T301 661T415 678Q465 678 506 666T580 634T638 586T682 529L583 477Q559 519 514 546T415 574Q343 574 288 538T206 439H474V371H187Q186 361 186 352T185 333Q185 324 185 315T187 298H474V230H205Q231 167 286 130T415 92Q469 92 514 119T583 189L683 139Q664 109 639 82T580 34T506 1T415 -12Z"  />
<glyph unicode="&#x2122;" horiz-adv-x="454" d="M391 447V629L316 447H308L233 629V447H205V667H248L312 507L376 667H419V447H391ZM107 641V447H79V641H17V667H169V641H107Z"  />


</font>
</defs>
</svg>
